<svg id="Layer_1" data-name="Layer 1" xmlns="http://www.w3.org/2000/svg" viewBox="0 0 3563.37 992.17"><defs><style>.cls-1,.cls-3{fill:#8c1d40;}.cls-2{fill:none;stroke:#8c1d40;stroke-width:3px;}.cls-3{isolation:isolate;font-size:24.63px;font-family:Arial-BoldMT, Arial;font-weight:700;}</style></defs><g id="Layer_1-2" data-name="Layer 1"><path class="cls-1" d="M885.32,1256.34a149.34,149.34,0,0,0,45.86-7.12q22.25-7.14,32.68-13.75l10.44-7.13,44,87.9c-1.47,1.1-3.5,2.56-6.06,4.39s-8.51,5.21-17.86,10.15a209,209,0,0,1-29.94,12.91q-15.91,5.5-41.75,9.9a316.92,316.92,0,0,1-53.27,4.4q-63.17,0-119.75-31a247.57,247.57,0,0,1-91.2-85.41q-34.66-54.43-34.65-117.58a215.85,215.85,0,0,1,20.33-91.73q20.34-44,54.11-75.27t78.83-50a238.64,238.64,0,0,1,92.29-18.69q44,0,81,10.44t52.46,20.87l15.4,10.44-44,87.89a91.61,91.61,0,0,0-11.54-8q-7.69-4.69-30.77-12.38a147,147,0,0,0-46.67-7.69q-37.35,0-67,12.09t-47,31.87a146.67,146.67,0,0,0-26.26,42.6,124.54,124.54,0,0,0-9.07,46.42q0,51.65,38.71,92.56T885.32,1256.34Z" transform="translate(-623.82 -877.32)"/><path class="cls-1" d="M1032.79,1316.24q-46.95-41.76-46.95-107.13t48.89-107.39q48.9-42,120.86-42,70.88,0,119.47,42.3t48.63,107.12q0,64.81-47.52,106.86t-120.58,42Q1079.76,1358,1032.79,1316.24Zm75.27-154.92q-18.93,18.67-18.93,47.79t18.12,47.52Q1125.38,1275,1155,1275q28.57,0,47-18.67t18.42-47.25q0-29.13-19-47.79T1155,1142.63Q1127,1142.63,1108.06,1161.32Z" transform="translate(-623.82 -877.32)"/><path class="cls-1" d="M1336.85,1314.86q-39.54-43.12-39.54-105.75t39.54-106q39.57-43.39,100.54-43.4,56,0,92.3,35.15V877.32h97.22v472.42h-96.12v-31.86h-1.1q-36.26,40.11-92.3,40.11Q1376.42,1358,1336.85,1314.86Zm82.69-153.54q-18.94,18.67-18.94,47.79t18.13,47.52q18.12,18.4,47.79,18.4,28.56,0,47-18.67t18.41-47.25q0-29.13-19-47.79t-46.42-18.69Q1438.51,1142.63,1419.54,1161.32Z" transform="translate(-623.82 -877.32)"/><path class="cls-1" d="M1926.31,1222.3H1722q0,29.64,19.23,43.94t41.75,14.29q23.63,0,37.36-6.31t31.31-25l70.31,35.14Q1878,1358,1775.79,1358q-63.72,0-109.32-43.67t-45.6-105.21q0-61.51,45.6-105.46t109.32-44q67,0,109,38.73t42,110.69A100.62,100.62,0,0,1,1926.31,1222.3Zm-201.61-53.83h107.13q-3.3-22-17.31-33.8t-36-11.81q-24.18,0-38.46,12.65T1724.7,1168.47Z" transform="translate(-623.82 -877.32)"/><path class="cls-1" d="M1920.82,896.53h131.29q94.47,0,161.5,64.56t67,161.77q0,97.8-66.75,162.33t-161.77,64.55H1920.82Zm103.27,360.91H2040q56.57,0,92.56-38.16t36.52-95.88q0-57.66-36-96.12T2040,988.82h-15.94Z" transform="translate(-623.82 -877.32)"/><path class="cls-1" d="M2559.7,1222.3H2355.34q0,29.64,19.23,43.94t41.75,14.29q23.63,0,37.35-6.31t31.32-25l70.31,35.14Q2511.37,1358,2409.17,1358q-63.71,0-109.31-43.67t-45.6-105.21q0-61.51,45.6-105.46t109.31-44q67,0,109,38.73t42,110.69A102.38,102.38,0,0,1,2559.7,1222.3Zm-201.61-53.83h107.13q-3.3-22-17.32-33.8t-36-11.81q-24.17,0-38.45,12.65T2358.09,1168.47Z" transform="translate(-623.82 -877.32)"/><path class="cls-1" d="M2625.62,1067.92l68.67,153.27L2763,1067.92h115.36L2727.3,1349.74h-65.92l-151.11-281.82Z" transform="translate(-623.82 -877.32)"/><path class="cls-1" d="M2858,910.82q17-17,40.65-17t40.64,17q17,17,17.05,40.65t-17.05,40.66q-17,17-40.64,17t-40.65-17q-17-17-17-40.66T2858,910.82Zm-9.33,157.1v281.82h97.23V1067.92Z" transform="translate(-623.82 -877.32)"/><path class="cls-1" d="M2962.91,1349.74V877.32h97.23v472.42Z" transform="translate(-623.82 -877.32)"/><path class="cls-1" d="M3196.93,1059.69a210.64,210.64,0,0,1,47.79,5.5q23.63,5.49,35.17,11l11.52,5.48-31.86,63.73q-33-17.58-62.62-17.58-16.48,0-23.36,3.58t-6.85,13.46a18.15,18.15,0,0,0,.54,4.4,10.38,10.38,0,0,0,2.21,4.12q1.64,1.92,3,3.29a18.35,18.35,0,0,0,4.67,3q3.29,1.65,5.2,2.48c1.3.54,3.41,1.37,6.34,2.46l6.58,2.48c1.47.54,3.94,1.37,7.42,2.46s6.13,1.83,8,2.21a193.41,193.41,0,0,1,29.66,11,161.25,161.25,0,0,1,26.66,16.46,70.82,70.82,0,0,1,21.69,26.37q7.7,15.95,7.7,36.25,0,96.15-133.5,96.15a175.55,175.55,0,0,1-57.39-9.34q-27.2-9.35-39.27-18.68l-12.11-9.9,39.57-66.46q4.38,3.84,11.52,9.06t25.81,14.27q18.69,9.07,32.44,9.07,30.2,0,30.21-20.32a16.64,16.64,0,0,0-7.69-14.56q-7.7-5.22-26.11-11.81T3131,1227.24q-26.37-13.73-41.75-31t-15.37-45.9q0-42.83,33.22-66.73T3196.93,1059.69Z" transform="translate(-623.82 -877.32)"/><circle class="cls-2" cx="2735.96" cy="739.63" r="14.05"/><text class="cls-3" transform="translate(2726.55 730.35) rotate(90) scale(0.95 1)">R</text></g><g id="Layer_2" data-name="Layer 2"><path class="cls-1" d="M3517.05,1670.45l.7-93.43,437-3c-.45,5.77-14.22,62.66-14.22,62.66,134.22-73.33,246.66-114.22,246.66-114.22s-112.44-40.89-246.66-114.22c0,0,13.77,56.89,14.22,62.67l-436.32-2.69-.7-92.76c405.85-47.18,541.24-199,541.24-199s-346.67,106.67-666,72.67l5.12,218.82-2050.81,19.5c-23.74,0-43,15.81-43,35.31s19.26,35.31,43,35.31L3397.43,1577l-5.15,219.82c319.34-34,666,72.67,666,72.67S3922.89,1717.64,3517.05,1670.45Zm-79.81-102.61.16-.06h.29Z" transform="translate(-623.82 -877.32)"/></g></svg>